<svg xmlns="http://www.w3.org/2000/svg" xmlns:xlink="http://www.w3.org/1999/xlink" width="123" height="123" viewBox="0 0 123 123">
  <defs>
    <clipPath id="clip-path">
      <rect id="Rectángulo_113" data-name="Rectángulo 113" width="123" height="123" transform="translate(1078 3325)" fill="#fff" stroke="#707070" stroke-width="1"/>
    </clipPath>
  </defs>
  <g id="icon-apple" transform="translate(-1078 -3325)" clip-path="url(#clip-path)">
    <g id="Grupo_161" data-name="Grupo 161" transform="translate(-1430.172 1637.854)">
      <path id="Trazado_546" data-name="Trazado 546" d="M2838.279,1712.676c7.188,9.378,20.509,11.285,20.509,11.285s1.666-13.3-5.523-22.684-20.509-11.285-20.509-11.285S2831.091,1703.3,2838.279,1712.676Z" transform="translate(-305.1)" fill="none" stroke="#fff" stroke-linecap="round" stroke-linejoin="round" stroke-width="4.466"/>
      <path id="Trazado_547" data-name="Trazado 547" d="M3331.076,2009.618c0-8.307,5.359-19.65,15.5-27.784" transform="translate(-777.223 -276.407)" fill="none" stroke="#fff" stroke-linecap="round" stroke-linejoin="round" stroke-width="4.466"/>
      <path id="Trazado_548" data-name="Trazado 548" d="M2987.791,2686.006h18.85a8.079,8.079,0,0,1,8.079,8.079h0a8.079,8.079,0,0,1-8.079,8.079H2917.77v32.315h88.871a8.079,8.079,0,0,0,8.079-8.079v-32.315" transform="translate(-385.781 -943.334)" fill="none" stroke="#fff" stroke-linecap="round" stroke-linejoin="round" stroke-width="4.466"/>
      <path id="Trazado_549" data-name="Trazado 549" d="M2594.917,2468c-1.886-7.146-5.517-13.731-11.76-17.539-11.689-7.123-20.753,0-29.3,0s-17.213-6.432-29.3,0c-12.04,6.4-17.5,24.658-11.9,44.617,5.21,18.6,18.924,29.475,29.475,29.475,4.371,0,8.128-3.087,11.72-3.087s7.348,3.087,11.719,3.087c5.552,0,11.978-3.01,17.581-8.572" transform="translate(0 -717.247)" fill="none" stroke="#fff" stroke-linecap="round" stroke-linejoin="round" stroke-width="4.466"/>
      <line id="Línea_1" data-name="Línea 1" y2="16.158" transform="translate(2596.624 1774.987)" fill="none" stroke="#fff" stroke-linecap="round" stroke-linejoin="round" stroke-width="4.466"/>
      <line id="Línea_2" data-name="Línea 2" y2="16.158" transform="translate(2596.624 1774.987)" fill="none" stroke="#fff" stroke-linecap="round" stroke-linejoin="round" stroke-width="4.466"/>
      <line id="Línea_3" data-name="Línea 3" y2="16.158" transform="translate(2612.782 1774.987)" fill="none" stroke="#fff" stroke-linecap="round" stroke-linejoin="round" stroke-width="4.466"/>
      <line id="Línea_4" data-name="Línea 4" y2="16.158" transform="translate(2580.467 1774.987)" fill="none" stroke="#fff" stroke-linecap="round" stroke-linejoin="round" stroke-width="4.466"/>
      <line id="Línea_5" data-name="Línea 5" y2="16.158" transform="translate(2564.309 1774.987)" fill="none" stroke="#fff" stroke-linecap="round" stroke-linejoin="round" stroke-width="4.466"/>
      <line id="Línea_6" data-name="Línea 6" y2="16.158" transform="translate(2548.152 1774.987)" fill="none" stroke="#fff" stroke-linecap="round" stroke-linejoin="round" stroke-width="4.466"/>
    </g>
  </g>
</svg>
