<?xml version="1.0" encoding="utf-8"?>
<!-- Generator: Adobe Illustrator 24.0.2, SVG Export Plug-In . SVG Version: 6.00 Build 0)  -->
<svg version="1.1" id="Capa_1" xmlns="http://www.w3.org/2000/svg" xmlns:xlink="http://www.w3.org/1999/xlink" x="0px" y="0px"
	 viewBox="0 0 158 152" style="enable-background:new 0 0 158 152;" xml:space="preserve">
<style type="text/css">
	.st0{display:none;}
	.st1{display:inline;fill:none;stroke:#FF0000;stroke-miterlimit:10;}
	.st2{fill:#FFFFFF;}
</style>
<g id="Capa_1_1_" class="st0">
	
		<image style="display:inline;overflow:visible;enable-background:new    ;" width="120" height="120" xlink:href="7BA5F2AD.png"  transform="matrix(1.8667 0 0 1.8667 -31 -35)">
	</image>
</g>
<g id="Capa_3" class="st0">
	<circle class="st1" cx="81.5" cy="76.5" r="60"/>
</g>
<g id="Capa_2_1_">
	<path class="st2" d="M26.5,101.5c-3.3-6.5-7.5-20.5-5-36c4.5-27.8,29.1-45.9,54-48c24-2,36,8,36,8s-32-2-58,21
		c-16.4,14.5-22.4,32.3-24,38C27.6,91.3,26.8,97.2,26.5,101.5z"/>
	<path class="st2" d="M32.5,112.5c0-2.7,0-16,7-28c31-53,91-41,91-41c2.2,3,4.9,7.3,7,13c2.5,6.9,3,12.9,3,17
		c-4.3-1.1-10.5-2.3-17.9-2.3c-10.6,0-24.6,2.3-38.1,11.3c-33.3,22.2-32,47-32,47c-3.1-1.4-7.6-3.9-12-8
		C36.7,117.9,32.5,112.5,32.5,112.5z"/>
	<path class="st2" d="M64,134c0,0-1-21,27.5-35.5C123.8,82.1,138,96,138,96s-5,22.1-27.5,33.5C82.5,140.5,64,134,64,134z"/>
</g>
</svg>
