<svg xmlns="http://www.w3.org/2000/svg" xmlns:xlink="http://www.w3.org/1999/xlink" viewBox="0 0 117.34 123"><defs><style>.cls-1{fill:none;}.cls-2{clip-path:url(#clip-path);}.cls-3{fill:#fff;}</style><clipPath id="clip-path" transform="translate(-2.83 0)"><rect class="cls-1" width="123" height="123"/></clipPath></defs><g id="Capa_2" data-name="Capa 2"><g id="Capa_1-2" data-name="Capa 1"><g class="cls-2"><g id="icon-hand-coin"><g id="Grupo_160" data-name="Grupo 160"><path id="Trazado_543" data-name="Trazado 543" class="cls-3" d="M118.67,79.07a9,9,0,0,0-12.47-2.5L95.35,83.83a2.23,2.23,0,0,0,2.47,3.71l10.85-7.26a4.54,4.54,0,0,1,5.09,7.51l-.05,0L81,109.66a4.47,4.47,0,0,1-3.1.72l-31.49-9-.25-.06a8.92,8.92,0,0,0-6.61,1.36l-1.88,1.26L25.56,85.74,40.13,76a9.71,9.71,0,0,1,7.15-1.47L81.21,85.38h0a4.52,4.52,0,0,1,3,5.57,4.35,4.35,0,0,1-2.16,2.61,4.51,4.51,0,0,1-3.47.33h0l0,0L61.94,89.48a2.23,2.23,0,0,0-1.19,4.3h0l16.57,4.39h0a9,9,0,0,0,6.76-.67,8.82,8.82,0,0,0,4.35-5.28,9,9,0,0,0-5.91-11.09h0L48.69,70.27a1.66,1.66,0,0,0-.38-.11,14.06,14.06,0,0,0-10.65,2.1L23.09,82,21.8,80.09a2.23,2.23,0,0,0-3.09-.62L3.82,89.4a2.23,2.23,0,0,0-.62,3.09h0l12.16,18.24a2.23,2.23,0,0,0,3.71-2.47h0L8.15,91.87l11.18-7.45,17.2,25.8-11.18,7.46-.53-.81a2.23,2.23,0,0,0-3.73,2.45l0,0L22.88,122a2.23,2.23,0,0,0,3.09.62h0l14.89-9.93a2.23,2.23,0,0,0,.62-3.09l-1.31-2L42,106.37a4.51,4.51,0,0,1,3.25-.7l31.56,9h0l.13,0,.1,0h0a9,9,0,0,0,6.37-1.4l32.7-21.83a9,9,0,0,0,2.48-12.45Z" transform="translate(-2.83 0)"/><g id="Grupo_159" data-name="Grupo 159"><path id="Trazado_544" data-name="Trazado 544" class="cls-3" d="M88.55,33.61a18.24,18.24,0,0,0-5.22-1.79l-.12,0V20.51l.18,0A7.71,7.71,0,0,1,86.46,22a5.16,5.16,0,0,1,2,3.92,2.28,2.28,0,0,0,2.27,2.22h0A2.26,2.26,0,0,0,93,25.88a9.58,9.58,0,0,0-3.71-7.34A12.26,12.26,0,0,0,83.48,16l-.11,0-.05-2.74A2.28,2.28,0,0,0,81.05,11h0a2.27,2.27,0,0,0-2.23,2.3l0,2.73-.12,0A12.35,12.35,0,0,0,73,18.81,9.44,9.44,0,0,0,71.66,32.1a8.89,8.89,0,0,0,1.41,1.4l0,0a11.19,11.19,0,0,0,5.62,2.22l.12,0V49.51l-.19,0a8.49,8.49,0,0,1-3.89-2.37,5.85,5.85,0,0,1-1.57-3.83A2.29,2.29,0,0,0,70.92,41h0a2.26,2.26,0,0,0-2.22,2.3,10.08,10.08,0,0,0,1.15,4.5,11.25,11.25,0,0,0,2.9,3.53,13.47,13.47,0,0,0,5.85,2.73l.11,0,0,2.87A2.28,2.28,0,0,0,81,59.21h0a2.27,2.27,0,0,0,2.22-2.3l0-2.62.13,0a13.67,13.67,0,0,0,7.36-3.21,11.46,11.46,0,0,0,2.78-3.63,10.06,10.06,0,0,0,1-4.54A10.94,10.94,0,0,0,88.55,33.61ZM83.38,49.69l-.17,0V36.43l.18,0a13,13,0,0,1,3,1.08A6.49,6.49,0,0,1,90,43c.06,3.18-2.71,6-6.56,6.71Zm-4.55-29v10.5l-.17,0A6.16,6.16,0,0,1,76,30h0a4.93,4.93,0,0,1-1-6.9,4.67,4.67,0,0,1,.91-.92,7.51,7.51,0,0,1,2.69-1.5Z" transform="translate(-2.83 0)"/><path id="Trazado_545" data-name="Trazado 545" class="cls-3" d="M113.8,21.48a35.11,35.11,0,1,0,2.74,13.61A35.08,35.08,0,0,0,113.8,21.48Zm-32.35,45a31.4,31.4,0,1,1,31.41-31.4,31.39,31.39,0,0,1-31.41,31.4Z" transform="translate(-2.83 0)"/></g></g></g></g></g></g></svg>