<svg xmlns="http://www.w3.org/2000/svg" xmlns:xlink="http://www.w3.org/1999/xlink" width="123" height="123" viewBox="0 0 123 123">
  <defs>
    <clipPath id="clip-path">
      <rect id="Rectángulo_110" data-name="Rectángulo 110" width="123" height="123" transform="translate(1078 2839)" fill="#fff" stroke="#707070" stroke-width="1"/>
    </clipPath>
  </defs>
  <g id="icon-heart" transform="translate(-1078 -2839)" clip-path="url(#clip-path)">
    <g id="Grupo_157" data-name="Grupo 157" transform="translate(968.599 2683.312)">
      <path id="Trazado_541" data-name="Trazado 541" d="M391.553,194.5a29.978,29.978,0,0,0-19.613-25.156,33.1,33.1,0,0,0-18.062-1.373,36.929,36.929,0,0,0-16.054,7.726,36.931,36.931,0,0,0-16.055-7.726,33.106,33.106,0,0,0-18.062,1.373A29.978,29.978,0,0,0,284.094,194.5a38.886,38.886,0,0,0,1.048,13.851h5.565a34.267,34.267,0,0,1-1.264-13.24,24.686,24.686,0,0,1,16.142-20.722,26.981,26.981,0,0,1,9.428-1.684,31.17,31.17,0,0,1,20.982,8.537,2.692,2.692,0,0,0,3.646,0c8.669-7.983,20.323-10.607,30.415-6.852A24.686,24.686,0,0,1,386.2,195.113c1.018,8.894-2.107,19.07-9.037,29.432-8.2,12.264-21.435,24.572-39.343,36.6-17.053-11.456-29.866-23.165-38.133-34.848H293.2q.4.62.811,1.241c8.829,13.2,23.071,26.348,42.334,39.088a2.691,2.691,0,0,0,2.97,0c19.263-12.74,33.505-25.891,42.334-39.088C389.292,216.1,392.719,204.677,391.553,194.5Z" transform="translate(-159.375)" fill="#fff"/>
      <path id="Trazado_542" data-name="Trazado 542" d="M153.636,467.834l6.14-15.784,8.384,33.716a2.692,2.692,0,0,0,5.008.578l8.6-16.795h16.755a2.692,2.692,0,1,0,0-5.383H180.126a2.692,2.692,0,0,0-2.4,1.464L171.653,477.5l-8.7-34.975a2.692,2.692,0,0,0-5.121-.327l-8.547,21.972H112.093a2.692,2.692,0,1,0,0,5.383h39.035a2.691,2.691,0,0,0,2.508-1.715Z" transform="translate(0 -249.533)" fill="#fff"/>
    </g>
  </g>
</svg>
