<svg xmlns="http://www.w3.org/2000/svg" width="116.713" height="128.817" viewBox="0 0 116.713 128.817">
  <g id="Grupo_155" data-name="Grupo 155" transform="translate(-24.055 0)">
    <g id="Grupo_150" data-name="Grupo 150" transform="translate(24.055 44.369)">
      <g id="Grupo_149" data-name="Grupo 149">
        <path id="Trazado_538" data-name="Trazado 538" d="M70.108,220.813,60.1,216.642c0-.027,0-.054,0-.083V200.427a5.921,5.921,0,0,0-8.066-5.521v-4.562a5.921,5.921,0,0,0-8.066-5.521v-2.545a5.924,5.924,0,1,0-11.848,0v2.434a5.9,5.9,0,0,0-6.232,1.233,5.951,5.951,0,0,0-1.835,4.286v22.3a1.89,1.89,0,0,0,.318,1.049l12.1,18.15a1.891,1.891,0,0,0,.805.679L54.3,239.972V258.91a1.89,1.89,0,1,0,3.781,0V238.743a1.891,1.891,0,0,0-1.123-1.728l-17.649-7.844L27.836,211.954V190.23a2.163,2.163,0,0,1,2.249-2.14,2.226,2.226,0,0,1,2.037,2.254v12.272a5.921,5.921,0,0,0,.271,8.018l10.7,10.864a1.89,1.89,0,0,0,2.694-2.653l-10.7-10.865a2.143,2.143,0,1,1,3.053-3.008l10.39,10.548a1.881,1.881,0,0,0,.889.768L68.654,224.3a6.159,6.159,0,0,1,3.8,5.7v28.905a1.89,1.89,0,0,0,3.781,0V230A9.929,9.929,0,0,0,70.108,220.813Zm-29.92-19.06a5.88,5.88,0,0,0-3.531-1.2,6,6,0,0,0-.754.043V182.277a2.143,2.143,0,0,1,4.285,0v19.476Zm8.067,8.1L43.961,205.5c0-.051.008-.1.008-.153v-15a2.143,2.143,0,0,1,4.285,0v19.51Zm8.067,5.215-4.285-1.786V200.427a2.143,2.143,0,0,1,4.285,0v14.642Z" transform="translate(-24.055 -176.353)" fill="#66308c"/>
      </g>
    </g>
    <g id="Grupo_152" data-name="Grupo 152" transform="translate(88.588 44.37)">
      <g id="Grupo_151" data-name="Grupo 151">
        <path id="Trazado_539" data-name="Trazado 539" d="M330.9,185.945a5.9,5.9,0,0,0-6.232-1.233v-2.434a5.924,5.924,0,1,0-11.848,0v2.545a5.921,5.921,0,0,0-8.066,5.521v4.562a5.921,5.921,0,0,0-8.066,5.521v16.133c0,.028,0,.055,0,.083l-10.01,4.171a9.93,9.93,0,0,0-6.127,9.191v28.905a1.891,1.891,0,1,0,3.781,0V230.006a6.16,6.16,0,0,1,3.8-5.7l19.236-8.015a1.88,1.88,0,0,0,.889-.768l10.39-10.548a2.143,2.143,0,1,1,3.053,3.008L311,218.846a1.89,1.89,0,0,0,2.694,2.653l10.7-10.864a5.921,5.921,0,0,0,.271-8.018V190.345a2.226,2.226,0,0,1,2.037-2.254,2.163,2.163,0,0,1,2.249,2.14v21.725l-11.478,17.217-17.649,7.844a1.891,1.891,0,0,0-1.123,1.728v20.166a1.891,1.891,0,1,0,3.781,0V239.973l17.027-7.568a1.889,1.889,0,0,0,.805-.679l12.1-18.15a1.89,1.89,0,0,0,.318-1.049v-22.3A5.948,5.948,0,0,0,330.9,185.945ZM304.75,213.284l-4.285,1.786V200.428a2.143,2.143,0,0,1,4.285,0v12.856Zm3.781-3.429v-19.51a2.143,2.143,0,0,1,4.285,0v15c0,.052,0,.1.008.153Zm12.352-9.258a6.006,6.006,0,0,0-.754-.043,5.878,5.878,0,0,0-3.531,1.2V182.279a2.143,2.143,0,1,1,4.285,0V200.6Z" transform="translate(-280.551 -176.355)" fill="#66308c"/>
      </g>
    </g>
    <g id="Grupo_154" data-name="Grupo 154" transform="translate(42.207 0)">
      <g id="Grupo_153" data-name="Grupo 153">
        <path id="Trazado_540" data-name="Trazado 540" d="M175.766,17.2a22.532,22.532,0,0,0-9-14.1A17.984,17.984,0,0,0,152.139.549c-5.348,1.26-10.673,4.611-15.85,9.969-5.177-5.358-10.5-8.708-15.85-9.969A17.983,17.983,0,0,0,105.817,3.1a22.53,22.53,0,0,0-9,14.1,28.481,28.481,0,0,0,2.46,18.673c5.808,11.617,15.395,19.38,22.414,23.847a70.05,70.05,0,0,0,14,6.992,1.9,1.9,0,0,0,1.2,0,70.057,70.057,0,0,0,14-6.992c7.02-4.467,16.606-12.23,22.415-23.847A28.482,28.482,0,0,0,175.766,17.2Zm-5.842,16.982c-5.4,10.807-14.387,18.086-20.973,22.291A70.5,70.5,0,0,1,136.29,62.91c-3.752-1.406-24.165-9.787-33.635-28.727A24.69,24.69,0,0,1,100.509,18a19.038,19.038,0,0,1,7.438-11.771,13.891,13.891,0,0,1,7.927-2.442,16.121,16.121,0,0,1,3.7.443c5.069,1.194,10.22,4.669,15.312,10.326a1.91,1.91,0,0,0,2.811,0c5.092-5.657,10.243-9.131,15.312-10.326a14.3,14.3,0,0,1,11.626,2A19.037,19.037,0,0,1,172.07,18,24.687,24.687,0,0,1,169.924,34.183Z" transform="translate(-96.201 0)" fill="#66308c"/>
      </g>
    </g>
  </g>
</svg>
