<svg xmlns="http://www.w3.org/2000/svg" xmlns:xlink="http://www.w3.org/1999/xlink" width="123" height="123" viewBox="0 0 123 123">
  <defs>
    <clipPath id="clip-path">
      <rect id="Rectángulo_112" data-name="Rectángulo 112" width="123" height="123" transform="translate(1078 3161)" fill="#fff" stroke="#707070" stroke-width="1"/>
    </clipPath>
  </defs>
  <g id="icon-airplane" transform="translate(-1078 -3161)" clip-path="url(#clip-path)">
    <g id="Grupo_162" data-name="Grupo 162" transform="translate(596.912 1814.795)">
      <path id="Trazado_550" data-name="Trazado 550" d="M598.435,1404.658c-2.746-1.259-2.4-6.719-10.984-8.819-3.379-.826-15.91-.807-30.073-.554-8.374-9.2-21.433-23.476-22.293-23.927-1.273-.665-9.587.933-9.587.933-.753,1.163,12.246,16.235,12.542,19.364.076.807.274,2.287.524,4.038-15.63.37-29.255.7-30.747.148-3.434-1.26-11.671-14.7-13.387-15.118,0,0-10.984-.84-11.67.42s9.954,28.976,18.879,31.5c4.179,1.18,19.728,2.176,37.018,2.685-.521,3.434-1.039,6.994-1.175,8.429-.3,3.129-13.293,18.2-12.542,19.364,0,0,8.315,1.6,9.587.933,1.018-.533,19.123-20.425,26.324-28.358,12.12.031,23.056-.249,29.346-.949,18.879-2.1,10.984-8.817,8.238-10.08Z" fill="none" stroke="#fff" stroke-miterlimit="10" stroke-width="3.323"/>
    </g>
  </g>
</svg>
