<svg width="131" height="39" viewBox="0 0 131 39" fill="none" xmlns="http://www.w3.org/2000/svg">
<path d="M1.4 6.68H4.8L10.32 16.02V6.68H12.98V20H9.62L4.06 10.6V20H1.4V6.68ZM21.335 20.26C20.2283 20.26 19.255 20.0267 18.415 19.56C17.575 19.0933 16.9217 18.44 16.455 17.6C16.0017 16.7467 15.775 15.7667 15.775 14.66V6.68H18.695V14.44C18.695 15.4267 18.9283 16.2133 19.395 16.8C19.875 17.3733 20.5217 17.66 21.335 17.66C22.1483 17.66 22.795 17.3733 23.275 16.8C23.755 16.2133 23.995 15.4267 23.995 14.44V6.68H26.895V14.66C26.895 15.7667 26.6617 16.7467 26.195 17.6C25.7417 18.44 25.095 19.0933 24.255 19.56C23.415 20.0267 22.4417 20.26 21.335 20.26ZM32.5408 9.2H28.9008V6.68H39.0608V9.2H35.4608V20H32.5408V9.2ZM40.988 6.68C41.388 6.66667 42.1346 6.66 43.228 6.66C44.3346 6.66 45.088 6.66667 45.488 6.68C47.008 6.73333 48.1413 7.10667 48.888 7.8C49.6346 8.48 50.008 9.4 50.008 10.56C50.008 11.5467 49.7546 12.3867 49.248 13.08C48.7546 13.76 48.0613 14.2067 47.168 14.42C47.448 14.6467 47.7346 14.96 48.028 15.36C48.3213 15.7467 48.728 16.3533 49.248 17.18C49.7946 18.0467 50.348 18.9867 50.908 20H47.548L45.288 15.8C45.048 15.36 44.828 15.0867 44.628 14.98C44.4413 14.86 44.1546 14.8 43.768 14.8V20H40.988V6.68ZM45.008 12.58C45.688 12.58 46.2213 12.4067 46.608 12.06C47.008 11.7133 47.208 11.2467 47.208 10.66C47.208 10.1267 47.0346 9.72 46.688 9.44C46.3413 9.16 45.8346 9.02 45.168 9.02H43.768V12.58H45.008ZM52.4194 6.68H55.3194V20H52.4194V6.68ZM64.495 20.26C62.3617 20.26 60.695 19.6867 59.495 18.54C58.295 17.3933 57.695 15.7733 57.695 13.68C57.695 12.2533 57.975 10.9933 58.535 9.9C59.1083 8.80667 59.915 7.96667 60.955 7.38C61.995 6.78 63.195 6.48 64.555 6.48C65.6617 6.48 66.7283 6.68 67.755 7.08L67.215 9.66C66.3083 9.24667 65.4283 9.04 64.575 9.04C63.3617 9.04 62.4017 9.44 61.695 10.24C60.9883 11.0267 60.635 12.08 60.635 13.4C60.635 14.7467 61.0083 15.7933 61.755 16.54C62.5017 17.2867 63.535 17.66 64.855 17.66C65.7217 17.66 66.5617 17.52 67.375 17.24L67.815 19.7C66.8417 20.0733 65.735 20.26 64.495 20.26ZM70.31 6.68H73.21V20H70.31V6.68ZM82.1856 20.26C80.879 20.26 79.7256 19.9733 78.7256 19.4C77.7256 18.8267 76.9456 18.02 76.3856 16.98C75.839 15.94 75.5656 14.7467 75.5656 13.4C75.5656 12.04 75.839 10.84 76.3856 9.8C76.9323 8.76 77.7056 7.95333 78.7056 7.38C79.7056 6.80667 80.8656 6.52 82.1856 6.52C83.4923 6.52 84.6456 6.80667 85.6456 7.38C86.6456 7.94 87.419 8.73333 87.9656 9.76C88.5123 10.7867 88.7856 11.9733 88.7856 13.32C88.7856 14.6933 88.5123 15.9067 87.9656 16.96C87.419 18 86.6456 18.8133 85.6456 19.4C84.6456 19.9733 83.4923 20.26 82.1856 20.26ZM82.1856 17.72C83.279 17.72 84.1523 17.3267 84.8056 16.54C85.4723 15.7533 85.8056 14.7067 85.8056 13.4C85.8056 12.5467 85.6523 11.7933 85.3456 11.14C85.0523 10.4733 84.6256 9.96667 84.0656 9.62C83.519 9.26 82.8923 9.08 82.1856 9.08C81.479 9.08 80.8456 9.26 80.2856 9.62C79.739 9.96667 79.3123 10.4733 79.0056 11.14C78.7123 11.7933 78.5656 12.5467 78.5656 13.4C78.5656 14.2533 78.7123 15.0067 79.0056 15.66C79.3123 16.3133 79.739 16.82 80.2856 17.18C80.8323 17.54 81.4656 17.72 82.1856 17.72ZM81.5656 4.6C82.0856 4.18667 82.4923 3.74667 82.7856 3.28L82.2656 2.22C82.2656 1.86 82.399 1.54 82.6656 1.26C82.9323 0.979999 83.2656 0.839999 83.6656 0.839999C84.079 0.839999 84.4256 0.986665 84.7056 1.28C84.9856 1.56 85.1256 1.92 85.1256 2.36C85.1256 3.04 84.8123 3.65333 84.1856 4.2C83.559 4.74667 82.8056 5.14 81.9256 5.38L81.5656 4.6ZM90.9898 6.68H94.3898L99.9098 16.02V6.68H102.57V20H99.2098L93.6498 10.6V20H90.9898V6.68Z" fill="white"/>
<path d="M19.02 24.68H22.5L27.44 38H24.44L23.36 34.96H18.12L17.1 38H14.14L19.02 24.68ZM22.5 32.48L20.7 27.38L18.96 32.48H22.5ZM28.9742 24.68H33.4342C34.7276 24.68 35.7476 24.9933 36.4942 25.62C37.2542 26.2333 37.6342 27.0733 37.6342 28.14C37.6342 29.3533 37.1076 30.2867 36.0542 30.94C37.4542 31.5 38.1542 32.4867 38.1542 33.9C38.1542 34.7 37.9542 35.4133 37.5542 36.04C37.1542 36.6533 36.5942 37.1333 35.8742 37.48C35.1676 37.8267 34.3676 38 33.4742 38H28.9742V24.68ZM32.7542 30.1C33.4209 30.1 33.9342 29.9467 34.2942 29.64C34.6676 29.3333 34.8542 28.9067 34.8542 28.36C34.8542 27.3733 34.2409 26.88 33.0142 26.88H31.7542V30.1H32.7542ZM33.0342 35.78C33.7542 35.78 34.3142 35.6133 34.7142 35.28C35.1276 34.9467 35.3342 34.5 35.3342 33.94C35.3342 33.4333 35.1609 33.04 34.8142 32.76C34.4676 32.48 33.9676 32.34 33.3142 32.34H31.7542V35.78H33.0342ZM45.9209 38.26C44.8143 38.26 43.8409 38.0267 43.0009 37.56C42.1609 37.0933 41.5076 36.44 41.0409 35.6C40.5876 34.7467 40.3609 33.7667 40.3609 32.66V24.68H43.2809V32.44C43.2809 33.4267 43.5143 34.2133 43.9809 34.8C44.4609 35.3733 45.1076 35.66 45.9209 35.66C46.7343 35.66 47.3809 35.3733 47.8609 34.8C48.3409 34.2133 48.5809 33.4267 48.5809 32.44V24.68H51.4809V32.66C51.4809 33.7667 51.2476 34.7467 50.7809 35.6C50.3276 36.44 49.6809 37.0933 48.8409 37.56C48.0009 38.0267 47.0276 38.26 45.9209 38.26ZM54.2867 24.68H57.6867L63.2067 34.02V24.68H65.8667V38H62.5067L56.9467 28.6V38H54.2867V24.68ZM70.7617 38.02C69.8151 38.02 69.1084 38.0133 68.6417 38V24.68C69.2151 24.6667 70.0617 24.66 71.1817 24.66C72.3151 24.66 73.1617 24.6667 73.7217 24.68C75.0284 24.6933 76.1617 24.96 77.1217 25.48C78.0951 25.9867 78.8417 26.7133 79.3617 27.66C79.8951 28.6067 80.1617 29.7133 80.1617 30.98C80.1617 32.3667 79.8551 33.5867 79.2417 34.64C78.6417 35.6933 77.7884 36.5133 76.6817 37.1C75.5884 37.6867 74.3151 37.9867 72.8617 38C72.3951 38.0133 71.6951 38.02 70.7617 38.02ZM72.8417 35.48C74.1884 35.48 75.2484 35.0867 76.0217 34.3C76.7951 33.5133 77.1817 32.4333 77.1817 31.06C77.1817 29.82 76.8484 28.8667 76.1817 28.2C75.5284 27.5333 74.5817 27.2 73.3417 27.2H71.5417V35.48H72.8417ZM85.6802 24.68H89.1602L94.1002 38H91.1002L90.0202 34.96H84.7802L83.7602 38H80.8002L85.6802 24.68ZM89.1602 32.48L87.3602 27.38L85.6202 32.48H89.1602ZM95.6344 24.68H99.0344L104.554 34.02V24.68H107.214V38H103.854L98.2944 28.6V38H95.6344V24.68ZM112.849 27.2H109.209V24.68H119.369V27.2H115.769V38H112.849V27.2ZM121.377 24.68H129.477V27.2H124.237V29.86H128.577V32.3H124.237V35.48H129.477V38H121.377V24.68Z" fill="#FE9925"/>
</svg>
